<svg width="25" height="25" viewBox="0 0 25 25" fill="none" xmlns="http://www.w3.org/2000/svg">
<path d="M11.7186 10.1562V14.0624C11.7186 14.4939 12.0684 14.8437 12.4998 14.8437C12.9313 14.8437 13.2811 14.4939 13.2811 14.0624V10.1562C13.2811 9.72472 12.9313 9.37495 12.4998 9.37495C12.0684 9.37495 11.7186 9.72472 11.7186 10.1562Z" fill="#1C1C1C"/>
<path fill-rule="evenodd" clip-rule="evenodd" d="M10.4761 3.51482C10.4761 3.51482 10.7877 2.97237 11.329 2.65843C11.329 2.65843 11.8721 2.34351 12.4999 2.34351C12.4999 2.34351 13.1276 2.34351 13.6707 2.65843C13.6707 2.65843 14.2138 2.97335 14.5256 3.51821L23.1174 18.3586C23.1174 18.3586 23.4313 18.9023 23.4319 19.5292C23.4319 19.5292 23.4324 20.1561 23.1199 20.6996C23.1199 20.6996 22.8074 21.243 22.2654 21.5579C22.2654 21.5579 21.7233 21.8728 21.0964 21.875L3.90612 21.875C3.90612 21.875 3.27647 21.8728 2.73439 21.5579C2.73439 21.5579 2.1923 21.243 1.87981 20.6996C1.87981 20.6996 1.56732 20.1561 1.56787 19.5292C1.56787 19.5292 1.56843 18.9023 1.88188 18.3594L10.4741 3.51821L10.4761 3.51482ZM3.23504 19.1406L11.8282 4.29787L11.8302 4.2944L11.8307 4.29364C11.8307 4.29364 11.9337 4.11401 12.1129 4.0101C12.1129 4.0101 12.2924 3.90601 12.4999 3.90601C12.4999 3.90601 12.7074 3.90601 12.8869 4.0101C12.8869 4.0101 13.0664 4.1142 13.1695 4.2943L21.7652 19.1414C21.7652 19.1414 21.8692 19.3216 21.8694 19.5306C21.8694 19.5306 21.8696 19.7395 21.7654 19.9207C21.7654 19.9207 21.6612 20.1019 21.4805 20.2068C21.4805 20.2068 21.2998 20.3118 21.0909 20.3125L3.90612 20.3125C3.90612 20.3125 3.6999 20.3118 3.51921 20.2068C3.51921 20.2068 3.33852 20.1018 3.23435 19.9207C3.23435 19.9207 3.13019 19.7395 3.13037 19.5306C3.13037 19.5306 3.13056 19.3216 3.23504 19.1406Z" fill="#1C1C1C"/>
<path d="M13.6717 17.5781C13.6717 18.2253 13.147 18.7499 12.4998 18.7499C11.8527 18.7499 11.328 18.2253 11.328 17.5781C11.328 16.9309 11.8527 16.4062 12.4998 16.4062C13.147 16.4062 13.6717 16.9309 13.6717 17.5781Z" fill="#1C1C1C"/>
</svg>
