<svg width="43" height="50" viewBox="0 0 43 50" fill="none" xmlns="http://www.w3.org/2000/svg">
<g clip-path="url(#clip0_558_59)">
<path d="M1.11591 9.37378L0 12.1482L15.0784 48.8842C15.1723 49.1117 15.3125 49.3174 15.4897 49.4882C15.667 49.659 15.8776 49.7912 16.1084 49.8767C16.3393 49.9621 16.5852 49.9989 16.8309 49.9847C17.0767 49.9704 17.3168 49.9055 17.5363 49.794L18.1093 49.5024L16.0184 43.27L1.11591 9.37378Z" fill="#163A4C"/>
<path d="M1.12441 9.45475L22.1061 0.561494C23.6243 -0.0820028 25.3358 -0.0959419 26.8644 0.522562C28.3929 1.14107 29.6134 2.34132 30.2569 3.85951L42.4178 32.5507C43.0504 34.0669 43.057 35.7719 42.4365 37.2931C41.816 38.8142 40.6186 40.0279 39.106 40.669L18.1243 49.5623L1.11658 9.43628L1.12441 9.45475Z" fill="#24506B"/>
<path d="M9.72065 12.8267L10.0775 12.6759C10.1891 12.6467 10.2927 12.5931 10.3811 12.5189C10.4694 12.4448 10.5401 12.3519 10.5882 12.2471C10.6363 12.1423 10.6605 12.0281 10.6591 11.9128C10.6577 11.7974 10.6307 11.6839 10.5801 11.5802C10.5396 11.4754 10.4763 11.3808 10.3948 11.3034C10.3134 11.226 10.2157 11.1676 10.1089 11.1325C10.0021 11.0974 9.8891 11.0864 9.77759 11.1004C9.66608 11.1144 9.55898 11.153 9.46419 11.2133L8.57971 11.5903L9.43401 13.6007L9.9619 13.3796L9.72065 12.8267ZM9.27817 11.7863L9.61488 11.6456C9.65459 11.6202 9.69962 11.6041 9.74642 11.5986C9.79323 11.5931 9.84082 11.5983 9.88533 11.6138C9.92984 11.6293 9.97009 11.6547 10.0034 11.688C10.0367 11.7214 10.0621 11.7618 10.0775 11.8064C10.1004 11.8488 10.1131 11.8959 10.115 11.944C10.117 11.9921 10.1079 12.0401 10.0885 12.0842C10.0691 12.1283 10.0399 12.1674 10.0031 12.1986C9.96634 12.2297 9.92296 12.252 9.87625 12.2638L9.53954 12.4045L9.27817 11.7863Z" fill="white"/>
<path d="M11.5652 12.701V12.2838L12.4347 11.9169L12.7263 12.2135L13.289 11.9773L11.5853 10.3186L11.0425 10.5498V12.9322L11.5652 12.701ZM11.5198 10.977L12.098 11.5802L11.5399 11.8164L11.5198 10.977Z" fill="white"/>
<path d="M14.0583 11.158C13.779 11.249 13.4781 11.249 13.1988 11.158L13.1686 11.6607C13.5218 11.7553 13.8965 11.7306 14.2342 11.5903C14.6866 11.3993 14.9579 11.0374 14.782 10.6252C14.4754 9.90148 13.4954 10.5398 13.3546 10.2081C13.3144 10.1126 13.3797 10.0321 13.5053 9.97685C13.7458 9.90201 14.0003 9.88311 14.2492 9.92157V9.41896C13.9432 9.37272 13.6305 9.411 13.3446 9.52958C12.842 9.73565 12.6409 10.1126 12.8017 10.4895C13.1033 11.2032 14.0784 10.5448 14.2242 10.8866C14.2895 10.9922 14.2141 11.0927 14.0583 11.158Z" fill="white"/>
<path d="M15.9178 10.3788C15.6385 10.4695 15.3376 10.4695 15.0583 10.3788L15.0281 10.8815C15.3817 10.9768 15.7571 10.9503 16.0937 10.8061C16.5461 10.6151 16.8174 10.2532 16.6415 9.84108C16.3349 9.11731 15.3549 9.75559 15.2142 9.42387C15.174 9.3334 15.2394 9.24798 15.3651 9.19772C15.604 9.12363 15.8561 9.10304 16.1038 9.1374L16.1291 8.63479C15.8226 8.5904 15.5097 8.63035 15.2242 8.75038C14.7216 8.95645 14.5205 9.3284 14.6814 9.70536C14.9829 10.4191 15.958 9.76061 16.1038 10.1074C16.134 10.2079 16.0736 10.3035 15.9178 10.3788Z" fill="white"/>
<path d="M17.4557 9.54451L17.8177 9.39376C17.9298 9.36536 18.0342 9.31222 18.123 9.23823C18.2119 9.16423 18.2829 9.07122 18.3311 8.96612C18.3793 8.86102 18.4034 8.7465 18.4016 8.63088C18.3997 8.51527 18.3719 8.40152 18.3203 8.29804C18.28 8.19375 18.2167 8.09975 18.1355 8.02286C18.0543 7.94597 17.9572 7.88811 17.8509 7.85346C17.7445 7.81882 17.6317 7.8083 17.5208 7.8226C17.4099 7.8369 17.3036 7.87569 17.2096 7.93617L16.3199 8.31313L17.1742 10.3236L17.7021 10.1024L17.4557 9.54451ZM17.0135 8.50916L17.3502 8.36841C17.3903 8.34303 17.4356 8.32699 17.4827 8.32147C17.5299 8.31596 17.5777 8.32112 17.6226 8.33657C17.6675 8.35201 17.7084 8.37733 17.7421 8.41068C17.7759 8.44403 17.8017 8.48454 17.8177 8.52922C17.8396 8.57212 17.8514 8.61938 17.8526 8.66751C17.8537 8.71564 17.8441 8.76344 17.8244 8.80734C17.8046 8.85123 17.7753 8.89012 17.7385 8.92115C17.7016 8.95218 17.6582 8.97455 17.6116 8.98661L17.2798 9.12736L17.0135 8.50916Z" fill="white"/>
<path d="M20.0944 9.11241C20.2355 9.05955 20.3645 8.97863 20.4735 8.87454C20.5826 8.77045 20.6694 8.64535 20.7288 8.50678C20.7881 8.36822 20.8187 8.21909 20.8188 8.06835C20.819 7.91761 20.7886 7.76844 20.7295 7.62979C20.6704 7.49113 20.5839 7.36586 20.475 7.2616C20.3661 7.15734 20.2372 7.0762 20.0961 7.02312C19.955 6.97003 19.8047 6.94611 19.6541 6.95274C19.5035 6.95938 19.3558 6.99648 19.22 7.06177C19.0788 7.11463 18.9498 7.19555 18.8408 7.29964C18.7318 7.40373 18.6449 7.52883 18.5856 7.6674C18.5262 7.80596 18.4954 7.95509 18.4952 8.10583C18.4951 8.25657 18.5257 8.40574 18.5848 8.54439C18.6439 8.68305 18.7304 8.80832 18.8393 8.91258C18.9482 9.01684 19.0772 9.09798 19.2182 9.15106C19.3593 9.20415 19.5096 9.22807 19.6602 9.22144C19.8108 9.2148 19.9585 9.1777 20.0944 9.11241ZM19.4158 7.50407C19.5681 7.44657 19.7366 7.44987 19.8865 7.51334C20.0364 7.57681 20.1561 7.69553 20.2208 7.84489C20.2854 7.99426 20.2901 8.16283 20.2338 8.31554C20.1775 8.46826 20.0645 8.5934 19.9184 8.66508C19.7661 8.72258 19.5978 8.71928 19.4479 8.65581C19.2981 8.59234 19.1783 8.47362 19.1137 8.32425C19.049 8.17489 19.0444 8.00632 19.1007 7.85361C19.157 7.70089 19.2697 7.57575 19.4158 7.50407Z" fill="white"/>
<path d="M21.723 7.73514L22.1049 7.57433L22.6377 8.0116L23.2309 7.75526L22.5322 7.25265C22.6225 7.14112 22.6785 7.00586 22.6936 6.86317C22.7088 6.72049 22.6824 6.57648 22.6176 6.44848C22.4266 6.00115 22.0094 5.87044 21.4766 6.09661L20.572 6.48363L21.4263 8.49409L21.9542 8.26794L21.723 7.73514ZM21.2857 6.69979L21.6676 6.53388C21.708 6.5086 21.7537 6.49281 21.8011 6.48762C21.8485 6.48244 21.8965 6.488 21.9414 6.50394C21.9864 6.51989 22.0272 6.54581 22.0607 6.57972C22.0943 6.61362 22.1196 6.65467 22.1351 6.69979C22.1569 6.74269 22.1688 6.78995 22.1699 6.83808C22.1711 6.88621 22.1615 6.93395 22.1417 6.97784C22.1219 7.02174 22.0926 7.06063 22.0558 7.09165C22.019 7.12268 21.9755 7.14506 21.9289 7.15712L21.5471 7.31799L21.2857 6.69979Z" fill="white"/>
<path d="M22.4869 5.68948L22.6729 6.12676L23.271 5.87042L23.9395 7.45366L24.4672 7.23251L23.7937 5.64927L24.4019 5.39294L24.2159 4.96069L22.4869 5.68948Z" fill="white"/>
<path d="M19.3457 15.2392C17.3609 16.0833 15.792 17.6804 14.9835 19.68C14.1749 21.6796 14.1929 23.9183 15.0333 25.9047C15.6834 27.4482 16.7992 28.7502 18.2249 29.6291L18.4662 29.7647C19.5525 30.3954 20.7707 30.7643 22.0245 30.8419C23.2782 30.9195 24.5327 30.7039 25.6885 30.212H25.7138C26.2924 29.9662 26.8406 29.6542 27.3473 29.2822C28.8775 28.1667 29.965 26.5471 30.4182 24.7084L30.4886 24.4471C30.8499 22.8091 30.6899 21.0992 30.0312 19.5567C29.6133 18.5714 29.0054 17.6781 28.2421 16.9279C27.4788 16.1776 26.5753 15.5851 25.583 15.1841C24.5907 14.7832 23.5291 14.5817 22.4588 14.5911C21.3886 14.6006 20.3308 14.8208 19.3457 15.2392ZM29.7799 25.1457L29.7045 25.3619L29.6292 25.5578L29.5386 25.769C29.5135 25.8343 29.4883 25.8946 29.4581 25.9549L29.3578 26.166L29.2672 26.3419L29.1516 26.548L29.0512 26.7189C29.011 26.7842 28.9708 26.8496 28.9256 26.9149L28.8201 27.0808L28.6843 27.2667L28.5636 27.4226C28.5184 27.4879 28.4681 27.5482 28.4178 27.6085L28.2922 27.7543L28.1363 27.9302L28.0058 28.0709L27.8347 28.2368C27.7902 28.2829 27.7434 28.3266 27.6941 28.3675C27.6388 28.4228 27.5735 28.473 27.5132 28.5283L27.3723 28.6489L27.1765 28.7997L27.0307 28.9103L26.8194 29.0561L26.6687 29.1566L26.5733 29.2169C26.9351 28.2971 26.9451 26.8697 26.6084 25.196C27.6708 24.9205 28.7691 24.8086 29.8653 24.8642C29.8653 24.8642 29.8653 24.9195 29.8653 24.9447C29.8653 24.9698 29.8 25.0804 29.7799 25.1457ZM24.0803 30.2171L23.8339 30.2673H23.6481L23.4069 30.3025H23.2157H22.9796H22.7887H22.1202H21.929H21.6929H21.502L21.2708 30.2673L21.0796 30.2322L20.8484 30.1869L20.6575 30.1367L20.4312 30.0763L20.2403 30.021L20.0192 29.9457L19.8331 29.8804L19.612 29.7899L19.426 29.7145L19.21 29.614L19.0289 29.5235L18.9536 29.4782C19.6783 28.6516 20.5259 27.9413 21.4666 27.3723C22.4367 28.7746 23.4772 29.7597 24.3819 30.1417L24.2663 30.1668L24.0803 30.2171ZM19.5568 15.6866C20.371 15.3398 21.7783 16.2947 23.1605 18.275C21.8301 19.0589 20.402 19.664 18.9133 20.0744C18.4308 17.7071 18.7224 16.0283 19.5367 15.6866H19.5568ZM23.7738 25.6383C23.0311 25.9505 22.3107 26.3132 21.6176 26.7239C21.064 25.8555 20.5798 24.9445 20.1698 23.9997L25.1057 21.9039C25.5008 22.8574 25.82 23.8405 26.0606 24.8442C25.274 25.0547 24.5032 25.32 23.7537 25.6383H23.7738ZM26.1612 25.3166C26.6387 27.709 26.3521 29.4078 25.5378 29.7647C24.7136 30.1015 23.2912 29.1264 21.904 27.121C22.574 26.726 23.2691 26.375 23.9849 26.0705C24.6865 25.7728 25.4068 25.5209 26.1411 25.3166H26.1612ZM19.9789 23.5524C19.574 22.5757 19.2512 21.567 19.0139 20.5367C19.7882 20.3255 20.5473 20.0619 21.2858 19.7477C22.0257 19.4365 22.7429 19.0737 23.4319 18.662C24.011 19.5449 24.5153 20.4746 24.9398 21.4415L19.9789 23.5524ZM19.5315 23.7384L15.4102 25.4875C14.8556 24.0626 14.7453 22.5031 15.0936 21.0142C16.2553 21.0773 17.4196 20.9621 18.5464 20.6724C18.7843 21.7189 19.1072 22.7443 19.5116 23.7384H19.5315ZM19.7227 24.1857C20.1408 25.1541 20.6365 26.087 21.2053 26.9752C20.2041 27.5867 19.3066 28.3535 18.5464 29.2471C17.2567 28.4609 16.2312 27.3075 15.6012 25.9348L19.7227 24.1857ZM26.523 24.7235C26.2832 23.6933 25.9589 22.6847 25.5531 21.7079L29.6743 19.9588C30.2222 21.3656 30.3378 22.9039 30.0062 24.3767C28.8274 24.3065 27.6449 24.4236 26.5028 24.7235H26.523ZM25.3619 21.2706C24.9384 20.2824 24.4341 19.3309 23.854 18.4258C24.8464 17.8164 25.7397 17.0587 26.5028 16.1791C27.8225 16.9631 28.8739 18.1283 29.5185 19.5214L25.3619 21.2706ZM26.0606 15.9379C25.3405 16.7539 24.5017 17.457 23.5726 18.0237C22.6126 16.6415 21.5973 15.6815 20.6926 15.3046C22.4932 14.8637 24.3926 15.0887 26.0405 15.9379H26.0606ZM18.4964 16.2394C18.1345 17.1441 18.1193 18.5464 18.446 20.195C17.3935 20.4693 16.3059 20.5845 15.2193 20.5367C15.7474 18.7565 16.905 17.2291 18.4762 16.2394H18.4964Z" fill="white"/>
<path d="M26.9099 39.1738L28.659 38.4349C28.65 38.3307 28.6738 38.2262 28.727 38.1361C28.7801 38.046 28.8599 37.9748 28.9555 37.9323C29.0565 37.8898 29.1688 37.8817 29.275 37.9089C29.3812 37.9361 29.4755 37.9973 29.5437 38.0831L31.2928 37.3392L30.8655 36.334L26.4878 38.1886L26.9099 39.1738Z" fill="white"/>
<path d="M29.3476 38.8269C29.2465 38.8693 29.1345 38.8776 29.0283 38.8503C28.9222 38.8231 28.8278 38.762 28.7596 38.6762L27.0105 39.415L27.4378 40.4202L31.8155 38.5655L31.3932 37.5603L29.6492 38.2992C29.6635 38.408 29.6416 38.5185 29.5871 38.6138C29.5327 38.7091 29.4486 38.7839 29.3476 38.8269Z" fill="white"/>
</g>
<defs>
<clipPath id="clip0_558_59">
<rect width="42.8981" height="50" fill="white"/>
</clipPath>
</defs>
</svg>
