<svg width="32" height="32" viewBox="0 0 32 32" fill="none" xmlns="http://www.w3.org/2000/svg">
<path d="M29.6875 13.0375C29.6564 12.8977 29.5957 12.7662 29.5095 12.6519C29.4232 12.5376 29.3134 12.4432 29.1875 12.375L26.2125 10.725C26.0542 10.4 25.8792 10.0875 25.6875 9.78748L25.7375 6.38748C25.7386 6.24487 25.7104 6.10355 25.6544 5.97236C25.5985 5.84117 25.5162 5.72291 25.4125 5.62498C23.9312 4.28193 22.1794 3.27177 20.275 2.66248C20.1382 2.61983 19.994 2.6067 19.8518 2.62393C19.7095 2.64117 19.5726 2.68839 19.45 2.76248L16.5375 4.51248C16.175 4.49998 15.825 4.49998 15.4625 4.51248L12.55 2.76248C12.4274 2.68839 12.2904 2.64117 12.1482 2.62393C12.006 2.6067 11.8618 2.61983 11.725 2.66248C9.81807 3.27224 8.06553 4.28709 6.58749 5.63748C6.48292 5.73204 6.39981 5.84791 6.34375 5.97727C6.28769 6.10664 6.25998 6.24651 6.26249 6.38748L6.32499 9.78748C6.12499 10.0875 5.94999 10.4 5.77499 10.725L2.81249 12.375C2.685 12.4411 2.57393 12.5349 2.48741 12.6496C2.40089 12.7642 2.34113 12.8967 2.31249 13.0375C1.88745 14.9896 1.88745 17.0103 2.31249 18.9625C2.34354 19.1023 2.40425 19.2338 2.49051 19.3481C2.57677 19.4623 2.68658 19.5568 2.81249 19.625L5.78749 21.275C5.94697 21.5984 6.12649 21.9115 6.32499 22.2125L6.26249 25.6125C6.26135 25.7551 6.28962 25.8964 6.34554 26.0276C6.40146 26.1588 6.48382 26.277 6.58749 26.375C8.07083 27.7152 9.82199 28.725 11.725 29.3375C11.8618 29.3801 12.006 29.3933 12.1482 29.376C12.2904 29.3588 12.4274 29.3116 12.55 29.2375L15.4625 27.4875H16.5375L19.4625 29.2375C19.6145 29.3375 19.793 29.3897 19.975 29.3875C20.0767 29.3831 20.1774 29.3663 20.275 29.3375C22.1819 28.7277 23.9345 27.7129 25.4125 26.3625C25.5171 26.2679 25.6002 26.152 25.6562 26.0227C25.7123 25.8933 25.74 25.7534 25.7375 25.6125L25.6875 22.2125C25.875 21.9125 26.05 21.6 26.225 21.275L29.2 19.625C29.3241 19.5561 29.4319 19.4612 29.516 19.3469C29.6001 19.2326 29.6586 19.1015 29.6875 18.9625C30.1125 17.0103 30.1125 14.9896 29.6875 13.0375ZM21.5 16C21.5 17.0878 21.1774 18.1511 20.5731 19.0556C19.9687 19.9601 19.1097 20.665 18.1048 21.0813C17.0998 21.4976 15.9939 21.6065 14.927 21.3943C13.8601 21.1821 12.8801 20.6583 12.1109 19.8891C11.3417 19.1199 10.8179 18.1399 10.6057 17.073C10.3935 16.0061 10.5024 14.9002 10.9187 13.8952C11.3349 12.8902 12.0399 12.0312 12.9444 11.4269C13.8488 10.8225 14.9122 10.5 16 10.5C17.4587 10.5 18.8576 11.0794 19.8891 12.1109C20.9205 13.1423 21.5 14.5413 21.5 16Z" fill="#30469C"/>
</svg>
