<svg width="50" height="42" viewBox="0 0 50 42" fill="none" xmlns="http://www.w3.org/2000/svg">
<path d="M4.94998 6.34009H45.05C45.9862 6.34009 46.8841 6.712 47.5461 7.374C48.2081 8.036 48.58 8.93387 48.58 9.87009V37.4901C48.5747 38.4228 48.2005 39.3156 47.539 39.9733C46.8776 40.6309 45.9827 41.0001 45.05 41.0001H4.99998C4.06111 41.0001 3.1607 40.6271 2.49682 39.9632C1.83294 39.2994 1.45998 38.399 1.45998 37.4601V9.88009C1.45728 8.94903 1.82253 8.05461 2.47618 7.39159C3.12984 6.72857 4.01898 6.35063 4.94998 6.34009Z" fill="#2D788C"/>
<g style="mix-blend-mode:multiply" opacity="0.5">
<path d="M1.41994 9.87996V24.78C1.7012 24.9131 2.00876 24.9814 2.31995 24.9799L20.0999 29.9799H29.8999L47.6799 24.9799C47.9942 24.9803 48.3048 24.912 48.5899 24.78V9.87996C48.5899 8.9411 48.217 8.04067 47.5531 7.37679C46.8892 6.71291 45.9888 6.33995 45.0499 6.33995H4.99994C4.53134 6.33331 4.0661 6.42003 3.63138 6.59508C3.19665 6.77013 2.80113 7.03 2.4679 7.35952C2.13466 7.68903 1.87037 8.0816 1.69044 8.51433C1.51052 8.94706 1.41856 9.41132 1.41994 9.87996Z" fill="#3999B3"/>
</g>
<path d="M25 0C19.76 0 15.51 3.09 15.51 6.91C15.51 10.73 19.76 13.81 25 13.81C30.24 13.81 34.49 10.72 34.49 6.91C34.49 3.1 30.24 0 25 0ZM25 11.92C21.19 11.92 18.11 9.67998 18.11 6.91998C18.11 4.15998 21.19 3.78 25 3.78C28.81 3.78 31.89 4.13998 31.89 6.91998C31.89 9.69998 28.81 11.92 25 11.92Z" fill="#27697A"/>
<path d="M47.68 6.34009H2.32001C1.7047 6.34009 1.1146 6.58451 0.67952 7.01959C0.244435 7.45468 0 8.04479 0 8.6601V21.5001C0.00264471 22.1137 0.248246 22.7012 0.683044 23.1341C1.11784 23.567 1.70643 23.8101 2.32001 23.8101L20.1 28.5301H29.9L47.68 23.8101C48.2936 23.8101 48.8822 23.567 49.317 23.1341C49.7518 22.7012 49.9974 22.1137 50 21.5001V8.6601C50 8.04479 49.7556 7.45468 49.3205 7.01959C48.8854 6.58451 48.2953 6.34009 47.68 6.34009Z" fill="#3999B3"/>
<g style="mix-blend-mode:multiply" opacity="0.5">
<path d="M28.35 30.0601H20.1V36.1801H28.35V30.0601Z" fill="#3999B3"/>
</g>
<path d="M29.3 29.1201H21.05V35.2401H29.3V29.1201Z" fill="#C8E4EB"/>
<path d="M28.35 30.0601H21.99V34.2901H28.35V30.0601Z" fill="#27697A"/>
<g style="mix-blend-mode:multiply" opacity="0.5">
<path d="M29.3 24.3H20.13V28.5301H29.3V24.3Z" fill="#3999B3"/>
</g>
<path d="M29.3 24.3H21.05V28.5301H29.3V24.3Z" fill="#C8E4EB"/>
<path d="M28.35 25.25H21.99V27.59H28.35V25.25Z" fill="#27697A"/>
</svg>
