<svg width="52" height="50" viewBox="0 0 52 50" fill="none" xmlns="http://www.w3.org/2000/svg">
<g clip-path="url(#clip0_558_99)">
<g style="mix-blend-mode:multiply" opacity="0.5">
<path d="M28.3932 1.42882H5.17585V3.25377H1.2339V48.0648C1.23304 48.3135 1.28137 48.5599 1.37596 48.7899C1.47055 49.02 1.60946 49.2291 1.78503 49.4053C1.9606 49.5815 2.16924 49.7213 2.39895 49.8166C2.62866 49.912 2.87513 49.9611 3.12386 49.9611H48.1879C48.6405 49.9619 49.0887 49.8736 49.5071 49.701C49.9254 49.5284 50.3059 49.2749 50.6262 48.9552C50.9465 48.6355 51.2005 48.2558 51.3739 47.8378C51.5473 47.4198 51.6365 46.9717 51.6365 46.5191V1.38989L28.3932 1.42882Z" fill="#808080"/>
</g>
<path d="M3.96174 0V1.83137H0.00012207V46.6814C0.00012207 47.1843 0.199742 47.6666 0.555376 48.0223C0.911011 48.3779 1.39348 48.5777 1.89642 48.5777H46.9541C47.407 48.5777 47.8556 48.4885 48.2739 48.3152C48.6923 48.1419 49.0725 47.8879 49.3927 47.5677C49.7129 47.2475 49.9668 46.8673 50.1401 46.4489C50.3134 46.0305 50.4027 45.5821 50.4027 45.1292V0H3.96174Z" fill="white"/>
<path d="M46.9541 48.5777C47.4069 48.5777 47.8555 48.4885 48.2739 48.3152C48.6923 48.1419 49.0724 47.8879 49.3926 47.5677C49.7128 47.2475 49.9667 46.8673 50.14 46.4489C50.3133 46.0305 50.4026 45.5821 50.4026 45.1292V0H27.2113V48.5777H46.9541Z" fill="#F4F4F4"/>
<path d="M3.96174 46.506C3.96174 47.0537 3.744 47.5789 3.3567 47.9662C2.9694 48.3535 2.44415 48.5711 1.89642 48.5711C1.6477 48.572 1.40124 48.5237 1.1712 48.4291C0.94116 48.3345 0.732188 48.1955 0.55601 48.0199C0.379833 47.8443 0.239786 47.6357 0.144406 47.406C0.0490257 47.1763 0.000120602 46.93 0.00012207 46.6813V1.8313H3.96174V46.506Z" fill="#30469C"/>
<path d="M46.8698 2.40942H7.49451V3.09782H46.8698V2.40942Z" fill="#9A9A9A"/>
<path d="M46.8698 11.3521H7.49451V12.0405H46.8698V11.3521Z" fill="#9A9A9A"/>
<path d="M46.8698 13.0342H29.1597V28.8869H46.8698V13.0342Z" fill="#9A9A9A"/>
<path d="M27.1853 13.4368H7.87109V17.1126H27.1853V13.4368Z" fill="#38A1B2"/>
<path d="M27.1853 18.4895H7.87109V19.5221H27.1853V18.4895Z" fill="#9A9A9A"/>
<path d="M27.1853 20.4636H7.87109V21.4962H27.1853V20.4636Z" fill="#9A9A9A"/>
<path d="M27.1853 22.438H7.87109V23.4706H27.1853V22.438Z" fill="#9A9A9A"/>
<path d="M27.1853 24.4187H7.87109V25.4513H27.1853V24.4187Z" fill="#9A9A9A"/>
<path d="M27.1853 26.3931H7.87109V27.4257H27.1853V26.3931Z" fill="#9A9A9A"/>
<path d="M27.1853 28.3674H7.87109V29.4H27.1853V28.3674Z" fill="#9A9A9A"/>
<path d="M17.5282 30.9976H7.87109V44.7331H17.5282V30.9976Z" fill="#9A9A9A"/>
<path d="M46.8697 30.9976H31.1924V34.6734H46.8697V30.9976Z" fill="#308F9D"/>
<path d="M46.8697 36.2905H31.1924V37.2192H46.8697V36.2905Z" fill="#9A9A9A"/>
<path d="M46.8697 38.2842H31.1924V39.2194H46.8697V38.2842Z" fill="#9A9A9A"/>
<path d="M46.8697 40.2781H31.1924V41.2068H46.8697V40.2781Z" fill="#9A9A9A"/>
<path d="M46.8697 42.2783H31.1924V43.207H46.8697V42.2783Z" fill="#9A9A9A"/>
<path d="M46.8697 44.272H31.1924V45.2007H46.8697V44.272Z" fill="#9A9A9A"/>
<path d="M29.1597 30.9976H19.5026V44.7331H29.1597V30.9976Z" fill="#9A9A9A"/>
<path d="M20.4346 5.26465H21.2109L22.7441 7.77197V5.26465H23.4717V9H22.7441L21.1694 6.39502V9H20.4346V5.26465ZM24.3506 5.26465H26.8555V5.91406H25.0854V6.73682H26.1646V7.29102H25.0854V8.35547H26.8555V9H24.3506V5.26465ZM27.1509 5.26465H27.854L28.3618 7.40332L28.8745 5.26465H29.7119L30.2271 7.42041L30.73 5.26465H31.4355L30.5518 9H29.9756L29.2993 6.14844L28.6108 9H28.0371L27.1509 5.26465ZM32.3999 7.95508C32.5236 8.14551 32.6449 8.27816 32.7637 8.35303C32.8841 8.4279 33.0257 8.46533 33.1885 8.46533C33.3838 8.46533 33.536 8.41732 33.645 8.32129C33.7541 8.22363 33.8086 8.10889 33.8086 7.97705C33.8086 7.86149 33.7655 7.75977 33.6792 7.67188C33.5913 7.58398 33.3952 7.49935 33.0908 7.41797C32.6758 7.30892 32.3787 7.17546 32.1997 7.01758C31.9767 6.81901 31.8652 6.57324 31.8652 6.28027C31.8652 5.96615 31.9767 5.70654 32.1997 5.50146C32.4227 5.29476 32.7287 5.19141 33.1177 5.19141C33.339 5.19141 33.536 5.22884 33.7085 5.30371C33.8826 5.37695 34.0299 5.47135 34.1504 5.58691C34.2285 5.66341 34.3066 5.76839 34.3848 5.90186L33.7695 6.15332C33.6654 6.00521 33.5588 5.89697 33.4497 5.82861C33.3407 5.76025 33.2194 5.72607 33.0859 5.72607C32.9215 5.72607 32.7897 5.77246 32.6904 5.86523C32.5928 5.95638 32.5439 6.06706 32.5439 6.19727C32.5439 6.30143 32.5846 6.39095 32.666 6.46582C32.7458 6.54069 32.946 6.618 33.2666 6.69775C33.5872 6.77751 33.8298 6.87028 33.9941 6.97607C34.1602 7.08187 34.2839 7.2194 34.3652 7.38867C34.4482 7.55794 34.4897 7.7321 34.4897 7.91113C34.4897 8.09993 34.4368 8.28955 34.3311 8.47998C34.2253 8.67041 34.0682 8.81689 33.8599 8.91943C33.6515 9.02197 33.4123 9.07324 33.1421 9.07324C32.8866 9.07324 32.6644 9.03092 32.4756 8.94629C32.2884 8.86003 32.1297 8.74447 31.9995 8.59961C31.9149 8.50684 31.8294 8.37744 31.7432 8.21143L32.3999 7.95508Z" fill="#231F20"/>
</g>
<defs>
<clipPath id="clip0_558_99">
<rect width="51.6171" height="50" fill="white"/>
</clipPath>
</defs>
</svg>
