<svg width="25" height="25" viewBox="0 0 25 25" fill="none" xmlns="http://www.w3.org/2000/svg">
<path d="M9.375 10.1563H15.625C16.0565 10.1563 16.4063 9.80647 16.4063 9.375C16.4063 8.94353 16.0565 8.59375 15.625 8.59375H9.375C8.94353 8.59375 8.59375 8.94353 8.59375 9.375C8.59375 9.80647 8.94353 10.1563 9.375 10.1563Z" fill="#1C1C1C"/>
<path d="M9.375 13.2813H15.625C16.0565 13.2813 16.4063 12.9315 16.4063 12.5C16.4063 12.0685 16.0565 11.7188 15.625 11.7188H9.375C8.94353 11.7188 8.59375 12.0685 8.59375 12.5C8.59375 12.9315 8.94353 13.2813 9.375 13.2813Z" fill="#1C1C1C"/>
<path d="M9.375 16.4063H12.5C12.9315 16.4063 13.2813 16.0565 13.2813 15.625C13.2813 15.1935 12.9315 14.8438 12.5 14.8438H9.375C8.94353 14.8438 8.59375 15.1935 8.59375 15.625C8.59375 16.0565 8.94353 16.4063 9.375 16.4063Z" fill="#1C1C1C"/>
<path fill-rule="evenodd" clip-rule="evenodd" d="M4.6875 21.875H15.3015L15.3027 21.875C15.3027 21.875 15.6105 21.8756 15.8954 21.7586C15.8954 21.7586 16.1814 21.6411 16.4007 21.4229L21.4216 16.402C21.4216 16.402 21.6411 16.1814 21.7586 15.8954C21.7586 15.8954 21.8761 15.6093 21.875 15.3L21.875 4.6875C21.875 4.6875 21.875 4.04029 21.4174 3.58265C21.4174 3.58265 20.9597 3.125 20.3125 3.125H4.6875C4.6875 3.125 4.04029 3.125 3.58265 3.58265C3.58265 3.58265 3.125 4.04029 3.125 4.6875V20.3125C3.125 20.3125 3.125 20.9597 3.58265 21.4174C3.58265 21.4174 4.04029 21.875 4.6875 21.875ZM20.3125 15.3014L15.3014 20.3125H4.6875V4.6875H20.3125L20.3125 15.3014Z" fill="#1C1C1C"/>
<path d="M14.8438 15.625V21.0254C14.8438 21.4569 15.1935 21.8066 15.625 21.8066C16.0565 21.8066 16.4063 21.4569 16.4063 21.0254V16.4063H21.0254C21.4569 16.4063 21.8066 16.0565 21.8066 15.625C21.8066 15.1935 21.4569 14.8438 21.0254 14.8438H15.625C15.1935 14.8438 14.8438 15.1935 14.8438 15.625Z" fill="#1C1C1C"/>
</svg>
