<svg width="28" height="30" viewBox="0 0 28 30" fill="none" xmlns="http://www.w3.org/2000/svg">
<g filter="url(#filter0_d_418_359)">
<path d="M16.7696 3.15196C18.9939 3.74909 20.6224 5.37764 20.6224 5.37764C22.2511 7.00628 22.8482 9.23073 22.8482 9.23073C22.8654 9.29485 22.8745 9.36133 22.875 9.42771L22.875 9.43367C22.875 9.78715 22.6376 10.0966 22.2962 10.1882C22.2349 10.2047 22.1717 10.2136 22.1081 10.2148L22.0937 10.2149C21.9567 10.2149 21.8221 10.1789 21.7034 10.1104C21.5239 10.0069 21.3929 9.83629 21.3392 9.63617L21.3389 9.63497C20.8501 7.81504 19.5176 6.48249 19.5176 6.48249C18.1846 5.14951 16.3639 4.66088 16.3639 4.66088C16.0225 4.56925 15.7851 4.25981 15.7851 3.90633C15.7851 3.83994 15.7936 3.77383 15.8103 3.70959L15.8118 3.70382C15.8616 3.51826 15.9781 3.35756 16.1389 3.25242C16.1511 3.24447 16.1634 3.23685 16.176 3.22959C16.2947 3.16112 16.4294 3.12508 16.5664 3.12508C16.6328 3.12508 16.6989 3.13354 16.7631 3.15025L16.7696 3.15196Z" fill="#1C1C1C"/>
<path d="M18.321 10.4444C18.4119 10.7868 18.7219 11.0255 19.0762 11.0255L19.0801 11.0255C19.1465 11.0252 19.2126 11.0164 19.2767 10.9993C19.6191 10.9084 19.8574 10.5985 19.8574 10.2443L19.8574 10.2403C19.8571 10.174 19.8483 10.1079 19.8313 10.0437C19.4541 8.62414 18.4153 7.58487 18.4153 7.58487C17.3764 6.54599 15.9564 6.16887 15.9564 6.16887C15.891 6.15149 15.8236 6.14269 15.7559 6.14269L15.7409 6.14284C15.3923 6.14952 15.0903 6.38641 15.0008 6.72341C14.9834 6.78884 14.9746 6.85625 14.9746 6.92394C14.9746 6.93273 14.9748 6.94151 14.9751 6.95029C14.9794 7.07901 15.0155 7.20467 15.0802 7.31606C15.1841 7.49527 15.3551 7.62583 15.5553 7.67902C16.5685 7.94826 17.3104 8.68972 17.3104 8.68972C18.0518 9.43111 18.321 10.4444 18.321 10.4444Z" fill="#1C1C1C"/>
<path fill-rule="evenodd" clip-rule="evenodd" d="M12.3657 9.37453L10.7379 11.8503C10.7379 11.8503 11.8607 14.1663 14.1761 15.2803L14.1793 15.2781L16.6162 13.6503C16.6162 13.6503 16.9471 13.4259 17.3453 13.3892C17.3453 13.3892 17.7435 13.3525 18.1052 13.5107L22.6674 15.4702C22.6674 15.4702 23.1521 15.6719 23.4149 16.1263C23.4149 16.1263 23.6777 16.5808 23.6109 17.1013C23.6109 17.1013 23.3486 19.1479 21.7998 20.5112C21.7998 20.5112 20.251 21.8746 18.1875 21.875C18.1875 21.875 15.3903 21.875 12.806 20.8046C12.806 20.8046 10.2217 19.7341 8.24381 17.7562C8.24381 17.7562 6.26589 15.7783 5.19544 13.194C5.19544 13.194 4.125 10.6097 4.125 7.81235C4.125 7.81235 4.12547 5.74899 5.4888 4.20019C5.4888 4.20019 6.85213 2.65139 8.89851 2.3892C8.89851 2.3892 9.41922 2.32232 9.87368 2.58514C9.87368 2.58514 10.3281 2.84795 10.5267 3.32509L12.4881 7.90168C12.4881 7.90168 12.6436 8.25968 12.6124 8.64874C12.6124 8.64874 12.5813 9.0378 12.3657 9.37453ZM9.3285 12.5248L9.32725 12.5222C9.32725 12.5222 9.15263 12.1557 9.17861 11.7503C9.17861 11.7503 9.20469 11.3435 9.42615 11.0013L11.0549 8.52408L9.09051 3.94058C9.09051 3.94058 7.63301 4.12908 6.66164 5.23258C6.66164 5.23258 5.68783 6.33887 5.6875 7.8127C5.6875 7.8127 5.6875 10.2989 6.63901 12.5961C6.63901 12.5961 7.59051 14.8932 9.34867 16.6514C9.34867 16.6514 11.1068 18.4095 13.404 19.361C13.404 19.361 15.7011 20.3125 18.1875 20.3125C18.1875 20.3125 19.6612 20.3122 20.7674 19.3384C20.7674 19.3384 21.8711 18.3669 22.0601 16.9097L17.4887 14.9465L15.0472 16.5774C15.0472 16.5774 14.7073 16.8069 14.2945 16.8383C14.2945 16.8383 13.8816 16.8696 13.5075 16.6924C13.5075 16.6924 10.6904 15.3372 9.33006 12.528L9.32947 12.5268L9.32912 12.5261L9.3285 12.5248Z" fill="#1C1C1C"/>
</g>
<defs>
<filter id="filter0_d_418_359" x="-3" y="0" width="33" height="33" filterUnits="userSpaceOnUse" color-interpolation-filters="sRGB">
<feFlood flood-opacity="0" result="BackgroundImageFix"/>
<feColorMatrix in="SourceAlpha" type="matrix" values="0 0 0 0 0 0 0 0 0 0 0 0 0 0 0 0 0 0 127 0" result="hardAlpha"/>
<feOffset dy="4"/>
<feGaussianBlur stdDeviation="2"/>
<feComposite in2="hardAlpha" operator="out"/>
<feColorMatrix type="matrix" values="0 0 0 0 0 0 0 0 0 0 0 0 0 0 0 0 0 0 0.25 0"/>
<feBlend mode="normal" in2="BackgroundImageFix" result="effect1_dropShadow_418_359"/>
<feBlend mode="normal" in="SourceGraphic" in2="effect1_dropShadow_418_359" result="shape"/>
</filter>
</defs>
</svg>
