<svg width="24" height="18" viewBox="0 0 24 18" fill="none" xmlns="http://www.w3.org/2000/svg">
<path d="M21.9204 12.8745H1.42835C1.34169 12.3222 1.25633 11.7723 1.17227 11.2249C0.936993 9.6963 0.702149 8.1697 0.467737 6.64506C0.315651 5.66205 0.159665 4.67969 0.0127776 3.69603C-0.0398677 3.34519 0.0673728 3.04632 0.386494 2.867C0.705616 2.68768 1.00654 2.73706 1.29641 2.95211C2.72174 4.02153 4.14511 5.09615 5.57888 6.15323C5.76529 6.29173 5.98211 6.38373 6.21127 6.42156C6.66623 6.48653 6.9912 6.25068 7.24273 5.8758C8.34763 4.20952 9.456 2.54496 10.5678 0.882142C10.6484 0.761297 10.7284 0.639152 10.8109 0.518956C11.2795 -0.171035 12.0867 -0.174933 12.5502 0.518956C13.5099 1.95221 14.4673 3.38677 15.4223 4.82262C15.6692 5.19361 15.9123 5.56654 16.1638 5.93427C16.546 6.49237 17.1842 6.60607 17.7289 6.20065C19.1709 5.12604 20.6103 4.04795 22.0471 2.96641C22.3773 2.71887 22.6971 2.69158 22.9934 2.87675C23.2898 3.06191 23.4061 3.36988 23.3359 3.76685C23.3203 3.85456 23.3106 3.94292 23.2969 4.03063C22.8767 6.7646 22.4559 9.49814 22.0348 12.2312C21.9984 12.4359 21.96 12.6425 21.9204 12.8745Z" fill="url(#paint0_linear_409_383)"/>
<path d="M1.44666 14.6008H21.9341V15.9971C21.9341 16.2888 21.9341 16.5818 21.9341 16.8722C21.9244 17.5492 21.472 18.0001 20.8 18.0001C14.7191 18.0001 8.63805 18.0001 2.55676 18.0001C1.91656 18.0001 1.4408 17.5706 1.42716 16.9463C1.41026 16.1933 1.42326 15.439 1.42716 14.6853C1.43049 14.6565 1.43704 14.6282 1.44666 14.6008Z" fill="url(#paint1_linear_409_383)"/>
<defs>
<linearGradient id="paint0_linear_409_383" x1="11.6779" y1="0" x2="11.6779" y2="12.8745" gradientUnits="userSpaceOnUse">
<stop stop-color="#FFDA84"/>
<stop offset="1" stop-color="#FBA629"/>
</linearGradient>
<linearGradient id="paint1_linear_409_383" x1="11.5" y1="7.5" x2="11.6764" y2="18.0001" gradientUnits="userSpaceOnUse">
<stop stop-color="#FFDA84"/>
<stop offset="1" stop-color="#FBA629"/>
</linearGradient>
</defs>
</svg>
