<svg width="40" height="50" viewBox="0 0 40 50" fill="none" xmlns="http://www.w3.org/2000/svg">
<g clip-path="url(#clip0_582_29)">
<path d="M39.1069 40.1766L37.8559 33.8251C37.7181 33.1275 37.4168 32.4725 36.9768 31.9138C36.5368 31.3551 35.9706 30.9087 35.3247 30.6112L28.3381 27.3877L19.6228 27.7697L10.9074 27.3877L3.92081 30.6112C3.27381 30.9071 2.70657 31.353 2.26639 31.912C1.82621 32.4709 1.52563 33.1268 1.38963 33.8251L0.0525696 40.5778C-0.041734 41.0583 -0.00665854 41.5552 0.15447 42.0176C0.315598 42.48 0.596942 42.8912 0.969438 43.2091C6.17759 47.6614 12.8252 50.0712 19.6766 49.9904C26.528 49.9095 33.117 47.3437 38.2187 42.7697C38.5798 42.4523 38.8518 42.046 39.0076 41.5912C39.1634 41.1364 39.1975 40.6487 39.1069 40.1766Z" fill="url(#paint0_linear_582_29)"/>
<path d="M14.8043 33.5913C15.5206 36.6715 17.7651 41.939 19.4604 45.7021C21.1605 41.939 23.4001 36.6715 24.1212 33.5913C24.5733 31.6787 24.9129 29.7413 25.1384 27.789L19.6227 28.0326L13.7822 27.7747C14.0055 29.7323 14.3469 31.6748 14.8043 33.5913Z" fill="#E5E6E7"/>
<path d="M19.4604 45.7021C20.2102 44.0354 21.0698 42.0774 21.8482 40.1481L20.8309 31.7861H18.0802L17.0631 40.1481C17.8511 42.0774 18.7107 44.0354 19.4604 45.7021Z" fill="url(#paint1_linear_582_29)"/>
<path opacity="0.3" d="M28.4097 27.5119L28.8204 27.8175V34.1976L26.7049 34.6513L29.1976 36.3848L22.2206 49.8853L21.7909 49.9187C21.4327 49.1642 20.7928 47.8031 20.0479 46.1556C21.7479 42.3924 23.9876 37.125 24.7087 34.0448C25.2206 31.8879 25.586 29.6989 25.8023 27.4927L28.1518 27.3877L28.4097 27.5119Z" fill="#231F20"/>
<path d="M13.7822 27.7747C14.0055 29.7323 14.3469 31.6748 14.8043 33.5913C15.2503 35.317 15.8101 37.0113 16.4804 38.6629L15.2627 32.3545C15.4221 31.73 15.7127 31.1467 16.1154 30.6435C16.5181 30.1404 17.0234 29.7289 17.5978 29.4365L19.3695 28.1806L19.4604 28.023L13.7822 27.7747Z" fill="#C3C4C6"/>
<path d="M25.1384 27.7747C24.9147 29.732 24.5751 31.6743 24.1213 33.5913C23.6712 35.3164 23.1097 37.0105 22.4403 38.6629L23.6579 32.3545C23.4985 31.73 23.2079 31.1467 22.8052 30.6435C22.4025 30.1404 21.8972 29.7289 21.3229 29.4365L19.5512 28.1806L19.4604 28.023L25.1384 27.7747Z" fill="#C3C4C6"/>
<path d="M24.7947 25.9168C24.7947 25.9168 22.464 28.1804 19.3695 28.1804C16.2749 28.1804 14.0448 25.9168 14.0448 25.9168V19.0735H24.7947V25.9168Z" fill="url(#paint2_radial_582_29)"/>
<path d="M28.2234 12.0631C28.1241 11.9595 28.0047 11.8773 27.8725 11.8215C27.7403 11.7657 27.5981 11.7374 27.4546 11.7384C27.3302 11.7393 27.2066 11.757 27.0869 11.7909C26.7383 2.62662 20.1385 2.90839 19.446 2.97047C18.7297 2.90839 12.0917 2.63136 11.7813 11.8816C11.6907 11.8763 11.5996 11.8763 11.509 11.8816C11.3398 11.8721 11.1706 11.8987 11.0125 11.9596C10.8545 12.0205 10.7111 12.1145 10.5921 12.235C10.2483 12.598 10.1146 13.2188 10.1528 14.1453C10.1991 14.827 10.3989 15.4894 10.7372 16.0832C11.0754 16.6769 11.5432 17.1865 12.1059 17.5741C12.4354 18.3477 13.8824 21.5091 16.0649 23.3668C16.1986 23.4767 16.318 23.5865 16.4326 23.6916C17.1298 24.3267 17.641 24.7851 19.4509 24.7851C21.2608 24.7851 21.7191 24.3506 22.3829 23.7585C22.4975 23.6534 22.6218 23.5387 22.7651 23.4241C24.9857 21.576 26.4565 18.3573 26.7907 17.5741C27.3579 17.1899 27.829 16.6804 28.1677 16.085C28.5064 15.4896 28.7037 14.8243 28.7441 14.1405C28.7537 13.1281 28.5863 12.4403 28.2234 12.0631Z" fill="#BC6F48"/>
<path d="M19.4269 24.5226C17.4164 24.5226 17.1346 23.9638 16.1843 23.1615C13.9875 21.2848 12.5501 18.0756 12.2636 17.3926C11.7165 17.025 11.2602 16.5377 10.9293 15.9676C10.5983 15.3976 10.4013 14.7597 10.3533 14.1023C10.2244 11.662 11.5806 12.13 11.977 12.1252C12.1775 2.80333 18.7917 3.13764 19.4269 3.19495C20.0573 3.13764 26.6715 2.80333 26.8721 12.1252C27.3067 11.8721 28.5817 11.5903 28.4958 14.1023C28.4545 14.7614 28.2604 15.4018 27.9289 15.9729C27.5973 16.544 27.1374 17.03 26.5855 17.3926C26.2942 18.0803 24.8329 21.3516 22.5979 23.2141C21.6619 23.9925 21.4326 24.5226 19.4269 24.5226Z" fill="url(#paint3_radial_582_29)"/>
<path d="M26.7621 3.05634C26.003 2.10018 25.0374 1.32844 23.9373 0.799086C22.8372 0.269732 21.6315 -0.0034256 20.4107 3.24271e-05C18.4431 3.24271e-05 16.6619 0.706779 15.8214 1.81471C15.6043 1.7729 15.3836 1.7521 15.1625 1.75262C14.5123 1.7492 13.8746 1.93226 13.3252 2.28014C12.7759 2.62801 12.3379 3.12611 12.063 3.71537C10.8007 6.25846 10.4453 9.15655 11.0554 11.9293C11.0658 11.9824 11.0955 12.0298 11.1387 12.0624C11.1819 12.095 11.2354 12.1106 11.2893 12.106C11.4484 12.0976 11.6078 12.0976 11.7669 12.106L11.8958 13.7202C11.9012 13.7733 11.9251 13.8229 11.9632 13.8604C12.0013 13.8978 12.0513 13.9208 12.1045 13.9254C12.1578 13.9299 12.2108 13.9157 12.2547 13.8852C12.2986 13.8547 12.3304 13.8098 12.3447 13.7584C12.7076 12.2998 13.2414 10.8892 13.935 9.55585C14.5118 8.65123 15.1755 7.80516 15.9168 7.02963C16.8948 7.97147 18.0644 8.69139 19.3457 9.14038C20.0868 9.41817 20.8705 9.56523 21.6619 9.57497C22.6508 9.55958 23.6198 9.29515 24.4795 8.80612C24.6787 8.68419 24.8965 8.59545 25.1242 8.54344C25.1576 8.54344 25.2531 8.54347 25.3343 8.93507C25.6734 10.5062 26.5569 13.7106 26.5664 13.7631C26.5792 13.8115 26.6078 13.8542 26.6476 13.8845C26.6874 13.9147 26.7361 13.9309 26.7861 13.9303C26.8394 13.9236 26.8886 13.8985 26.9253 13.8592C26.962 13.8199 26.9837 13.769 26.9866 13.7154L27.0678 12.0583C27.1918 12.0213 27.3205 12.0019 27.4499 12.0009C27.5779 11.9971 27.7047 12.0267 27.8177 12.0869C27.8488 12.1052 27.8838 12.1156 27.9198 12.1175C27.9558 12.1193 27.9917 12.1125 28.0245 12.0975C28.0573 12.0825 28.086 12.0598 28.1082 12.0314C28.1304 12.0029 28.1453 11.9696 28.1518 11.9341C28.2235 11.7144 29.317 6.17955 26.7621 3.05634Z" fill="#552618"/>
<path d="M15.9168 6.70961C16.893 7.71791 18.0944 8.48056 19.4223 8.93503C23.8205 10.5205 25.153 7.02478 25.5589 8.89679C25.8979 10.4823 26.7861 13.7154 26.7861 13.7154L26.8722 11.9006C27.2182 11.7599 27.6053 11.7599 27.9513 11.9006C27.9513 11.9006 29.1023 6.28937 26.5856 3.19959C23.1424 -1.02677 17.4068 -0.143289 15.9168 2.06779C15.1992 1.89341 14.4433 1.97266 13.7774 2.29211C13.1115 2.61156 12.5767 3.15156 12.2636 3.82044C11.0236 6.31588 10.6749 9.1604 11.2751 11.8815C11.5089 11.8678 11.7432 11.8678 11.977 11.8815L12.1204 13.6962C12.4899 12.218 13.0316 10.7883 13.7345 9.43643C14.374 8.46046 15.1047 7.54743 15.9168 6.70961Z" fill="url(#paint4_linear_582_29)"/>
<path d="M16.5378 2.35908C16.5378 2.35908 16.1605 5.48707 18.3095 6.96271C20.4585 8.43836 23.2951 8.32371 24.6513 7.94644C25.073 7.84845 25.5119 7.85193 25.932 7.95653C26.352 8.06113 26.7413 8.26388 27.0678 8.54817C26.975 7.9134 26.7434 7.30694 26.3892 6.77203C26.0351 6.23712 25.5672 5.78695 25.0191 5.45362C23.1805 4.39823 20.721 3.32373 21.5186 2.94646C22.3161 2.56919 24.0116 2.13462 24.8043 2.94646C24.8043 2.94646 23.0468 0.983715 20.5588 0.983715C19.1007 0.96919 17.6816 1.45459 16.5378 2.35908Z" fill="#6E3E36"/>
<path opacity="0.1" d="M22.0584 8.7488C21.7219 8.78468 21.3824 8.78468 21.0459 8.7488C20.2377 8.65448 19.4476 8.44212 18.7011 8.11846C17.7292 7.73128 16.7968 7.25151 15.9169 6.68579C16.8931 7.69409 18.0945 8.45668 19.4223 8.91115C22.4404 9.99998 24.0163 8.69148 24.8377 8.37152C24.5615 8.41636 24.2814 8.43236 24.002 8.41926C23.362 8.51955 22.7079 8.67717 22.0584 8.7488Z" fill="white"/>
<path opacity="0.2" d="M17.3257 5.15283C17.3257 5.15283 17.383 5.2149 17.4929 5.31996C17.6027 5.42503 17.7554 5.56829 17.9464 5.73544C18.0419 5.82139 18.152 5.90738 18.2666 5.99811C18.3812 6.08885 18.5005 6.17956 18.6294 6.27507C18.7583 6.37059 18.8872 6.46614 19.0305 6.55687C19.1737 6.64761 19.3075 6.73831 19.4556 6.81949C19.5973 6.90893 19.7439 6.99025 19.8949 7.06305C20.0429 7.14424 20.1909 7.21113 20.3342 7.27799C20.4775 7.34484 20.6209 7.39737 20.7546 7.4499C20.8801 7.50508 21.0094 7.55132 21.1415 7.58835L21.4709 7.69824L21.7335 7.76504L21.9581 7.82713H21.7239L21.4518 7.7985L21.1079 7.73642L20.9073 7.69346L20.7019 7.63137C20.5506 7.59043 20.4024 7.53935 20.2579 7.47852C20.0949 7.42133 19.9354 7.35438 19.7804 7.27799C19.6228 7.20158 19.47 7.12516 19.3028 7.03443C19.1527 6.9489 19.0075 6.85478 18.8682 6.75263C18.7249 6.66189 18.596 6.55205 18.4671 6.45177C18.2382 6.26673 18.0227 6.0657 17.8224 5.8501C17.6795 5.6988 17.5457 5.53935 17.4213 5.37255C17.3849 5.30139 17.3529 5.22798 17.3257 5.15283Z" fill="white"/>
<path opacity="0.1" d="M21.5759 6.70972L21.9723 6.92937L22.383 7.14431C22.531 7.22072 22.6886 7.30189 22.8605 7.36874C22.9417 7.40695 23.023 7.44514 23.1042 7.47379C23.1838 7.50821 23.2649 7.53853 23.3476 7.56456C23.4884 7.61946 23.6318 7.66725 23.7774 7.70779L23.9541 7.76037L24.0975 7.79378L24.2169 7.82718H24.0927C23.9798 7.83646 23.8664 7.83646 23.7536 7.82718C23.6797 7.82409 23.6062 7.81453 23.5339 7.79856C23.4496 7.78974 23.3663 7.77214 23.2856 7.74603C23.1089 7.70221 22.9363 7.64309 22.7698 7.56934C22.6041 7.4943 22.4444 7.40646 22.2923 7.30666C22.1577 7.22473 22.03 7.13212 21.9103 7.0297C21.788 6.93503 21.6759 6.82777 21.5759 6.70972Z" fill="white"/>
<path d="M27.0869 15.4251C27.0983 14.7427 27.2012 14.0649 27.3926 13.4098C27.6839 12.6266 27.9179 12.8272 27.9991 12.9896C28.0803 13.1519 27.3209 13.916 27.0869 15.4251Z" fill="#BC6F48"/>
<path d="M11.6857 15.4251C11.6743 14.7427 11.5714 14.0649 11.38 13.4098C11.0935 12.6266 10.8547 12.8272 10.7735 12.9896C10.6923 13.1519 11.4517 13.916 11.6857 15.4251Z" fill="#BC6F48"/>
<path d="M25.3342 8.9445C25.2531 8.55291 25.1576 8.55287 25.1241 8.55287C24.8964 8.60489 24.6786 8.69362 24.4794 8.81555C23.6198 9.30458 22.6508 9.56901 21.6619 9.58441C20.8705 9.57467 20.0868 9.42761 19.3457 9.14982C18.0643 8.70082 16.8947 7.98091 15.9168 7.03906C15.1754 7.8146 14.5117 8.66066 13.935 9.56529C13.3508 10.671 12.8835 11.8345 12.5405 13.0371C12.5405 13.0371 14.3505 9.15938 15.7736 8.73913C16.8747 9.70959 18.2039 10.3849 19.6369 10.7019C21.8194 11.0935 24.9141 9.36953 24.9141 9.36953L26.17 12.3017C25.8882 11.2272 25.5253 9.82798 25.3342 8.9445Z" fill="#CD9675"/>
<path d="M21.146 28.4145C21.0754 28.336 20.9894 28.273 20.8933 28.2294C20.7971 28.1858 20.6929 28.1627 20.5873 28.1614H18.2807C18.1752 28.1613 18.0708 28.1836 17.9745 28.2268C17.8783 28.2701 17.7922 28.3334 17.7222 28.4124C17.6523 28.4914 17.5999 28.5844 17.5686 28.6852C17.5372 28.786 17.5277 28.8923 17.5406 28.9971L17.8461 31.6905C17.8672 31.8733 17.9547 32.0419 18.0921 32.1643C18.2294 32.2867 18.4071 32.3544 18.5911 32.3543H20.2865C20.4705 32.3544 20.6479 32.2867 20.7853 32.1643C20.9227 32.0419 21.0102 31.8733 21.0313 31.6905L21.337 28.9971C21.3474 28.892 21.3359 28.7859 21.303 28.6856C21.2701 28.5853 21.2166 28.493 21.146 28.4145Z" fill="url(#paint5_linear_582_29)"/>
<path d="M14.0735 24.2598C15.1313 25.4644 16.4337 26.4298 17.8939 27.0917C18.4671 27.3751 18.9951 27.742 19.4604 28.1805C19.4604 28.1805 16.6235 28.5052 14.8327 32.0678C14.8231 32.0678 12.3399 25.9551 14.0735 24.2598Z" fill="#D1D0DB"/>
<path d="M24.8281 24.2598C23.7703 25.4644 22.4679 26.4298 21.0077 27.0917C20.4345 27.3751 19.9067 27.742 19.4414 28.1805C19.4414 28.1805 22.2779 28.5052 24.0735 32.0678C24.0831 32.0678 26.5664 25.9551 24.8281 24.2598Z" fill="#D1D0DB"/>
<path d="M20.406 28.0326C20.406 28.0326 23.1996 28.9542 24.0497 31.0698C24.0497 31.0698 25.3485 26.8817 24.8614 25.0479C24.8614 25.0479 22.3401 27.598 20.406 28.0326Z" fill="url(#paint6_linear_582_29)"/>
<path d="M18.5149 28.0326C18.5149 28.0326 15.7259 28.9542 14.8758 31.0698C14.8758 31.0698 13.572 26.8817 14.0639 25.0479C14.0639 25.0479 16.5808 27.598 18.5149 28.0326Z" fill="url(#paint7_linear_582_29)"/>
<path d="M28.233 33.7441V27.3639L25.3294 25.1768C25.2196 28.0159 24.8148 30.8359 24.1213 33.5913C23.0038 38.3668 18.214 48.4384 17.4929 49.9332C18.109 49.9762 18.7297 50.0001 19.3553 50.0001C20.3104 50.0001 21.2655 49.9475 22.192 49.8568L28.6103 35.9313L26.1223 34.1978L28.233 33.7441Z" fill="url(#paint8_linear_582_29)"/>
<path opacity="0.3" d="M10.64 27.5119L10.2293 27.8175V34.1976L12.3448 34.6513L9.85205 36.3848L16.8291 49.8853L17.2588 49.9187C17.6218 49.1642 18.2569 47.8031 19.0018 46.1556C17.3065 42.3924 15.062 37.125 14.3457 34.0448C13.8303 31.8884 13.4635 29.6993 13.2474 27.4927L10.9025 27.3877L10.64 27.5119Z" fill="#231F20"/>
<path d="M17.5167 49.8807C17.7984 49.3028 18.5483 47.7221 19.4605 45.7021C17.7651 41.9389 15.5206 36.6715 14.8043 33.5913C14.1109 30.8359 13.7058 28.0159 13.5959 25.1768L10.6877 27.3639V33.7441L12.8031 34.2216L10.3104 35.9551L17.5167 49.8807Z" fill="url(#paint9_linear_582_29)"/>
<path d="M15.3869 2.70776C15.2743 3.64713 15.326 4.59893 15.5396 5.52057C15.5396 5.52057 12.7844 6.85775 11.8006 9.72786C11.8006 9.72786 11.5569 3.93508 15.3869 2.70776Z" fill="#6E3E36"/>
<path d="M15.6017 5.7019C15.6017 5.7019 15.425 5.8404 15.1862 6.06963C15.0668 6.17947 14.9283 6.31316 14.7898 6.4612C14.7134 6.53283 14.6467 6.61401 14.575 6.69042C14.5034 6.76683 14.4317 6.8528 14.36 6.93876C14.2216 7.10112 14.0878 7.27784 13.9636 7.44021C13.8395 7.60258 13.7344 7.76017 13.6437 7.91777C13.553 8.07536 13.5529 8.05149 13.5194 8.1088L13.4241 8.25681C13.3715 8.338 13.338 8.38098 13.338 8.38098C13.338 8.38098 13.3381 8.32848 13.3858 8.23775C13.4269 8.10799 13.4746 7.98045 13.529 7.85568C13.5672 7.77927 13.6006 7.69331 13.6484 7.61212C13.6961 7.53094 13.744 7.43541 13.8013 7.34945C13.8587 7.26349 13.9159 7.16322 13.9828 7.07726C14.0496 6.9913 14.1166 6.89577 14.1882 6.80981C14.336 6.63967 14.4956 6.48009 14.6657 6.33225C14.8155 6.20224 14.9752 6.08409 15.1433 5.97887C15.2571 5.90517 15.375 5.83823 15.4966 5.77833L15.6017 5.7019Z" fill="#6E3E36"/>
</g>
<defs>
<linearGradient id="paint0_linear_582_29" x1="19.5797" y1="26.7048" x2="19.5797" y2="50.0381" gradientUnits="userSpaceOnUse">
<stop stop-color="#231F20"/>
<stop offset="0.21" stop-color="#2F2C2D"/>
<stop offset="0.71" stop-color="#464647"/>
<stop offset="1" stop-color="#4E4F51"/>
</linearGradient>
<linearGradient id="paint1_linear_582_29" x1="19.4604" y1="31.7432" x2="19.4604" y2="45.363" gradientUnits="userSpaceOnUse">
<stop offset="0.01" stop-color="#890404"/>
<stop offset="0.03" stop-color="#98090A"/>
<stop offset="0.07" stop-color="#AE0F12"/>
<stop offset="0.12" stop-color="#BF1518"/>
<stop offset="0.18" stop-color="#CA181D"/>
<stop offset="0.27" stop-color="#D11A1F"/>
<stop offset="0.52" stop-color="#D31B20"/>
<stop offset="0.89" stop-color="#A71012"/>
<stop offset="1" stop-color="#990C0E"/>
</linearGradient>
<radialGradient id="paint2_radial_582_29" cx="0" cy="0" r="1" gradientUnits="userSpaceOnUse" gradientTransform="translate(19.532 25.1098) scale(6.02681 6.02673)">
<stop stop-color="#EEB698"/>
<stop offset="0.26" stop-color="#EBB395"/>
<stop offset="0.49" stop-color="#E4AB8A"/>
<stop offset="0.71" stop-color="#D79D78"/>
<stop offset="0.91" stop-color="#C48A5F"/>
<stop offset="1" stop-color="#BB8052"/>
</radialGradient>
<radialGradient id="paint3_radial_582_29" cx="0" cy="0" r="1" gradientUnits="userSpaceOnUse" gradientTransform="translate(19.4222 14.8394) scale(7.19202 11.651)">
<stop stop-color="#EEB698"/>
<stop offset="0.27" stop-color="#ECB494"/>
<stop offset="0.52" stop-color="#E7AC89"/>
<stop offset="0.76" stop-color="#DEA076"/>
<stop offset="1" stop-color="#D18E5B"/>
</radialGradient>
<linearGradient id="paint4_linear_582_29" x1="19.6037" y1="0.0286294" x2="19.6037" y2="13.4718" gradientUnits="userSpaceOnUse">
<stop stop-color="#472B28"/>
<stop offset="0.15" stop-color="#582F29"/>
<stop offset="0.34" stop-color="#663329"/>
<stop offset="0.58" stop-color="#6E352A"/>
<stop offset="1" stop-color="#70362A"/>
</linearGradient>
<linearGradient id="paint5_linear_582_29" x1="19.4507" y1="28.276" x2="19.4507" y2="32.5883" gradientUnits="userSpaceOnUse">
<stop offset="0.01" stop-color="#890404"/>
<stop offset="0.11" stop-color="#9A090A"/>
<stop offset="0.31" stop-color="#B31114"/>
<stop offset="0.52" stop-color="#C5171B"/>
<stop offset="0.75" stop-color="#D01A1F"/>
<stop offset="1" stop-color="#D31B20"/>
</linearGradient>
<linearGradient id="paint6_linear_582_29" x1="22.4451" y1="29.2074" x2="24.938" y2="25.301" gradientUnits="userSpaceOnUse">
<stop stop-color="white"/>
<stop offset="0.01" stop-color="white" stop-opacity="0.98"/>
<stop offset="0.09" stop-color="white" stop-opacity="0.78"/>
<stop offset="0.17" stop-color="white" stop-opacity="0.59"/>
<stop offset="0.26" stop-color="white" stop-opacity="0.43"/>
<stop offset="0.35" stop-color="white" stop-opacity="0.3"/>
<stop offset="0.45" stop-color="white" stop-opacity="0.19"/>
<stop offset="0.55" stop-color="white" stop-opacity="0.11"/>
<stop offset="0.67" stop-color="white" stop-opacity="0.05"/>
<stop offset="0.8" stop-color="white" stop-opacity="0.01"/>
<stop offset="1" stop-color="white" stop-opacity="0"/>
</linearGradient>
<linearGradient id="paint7_linear_582_29" x1="16.4756" y1="29.2074" x2="13.9876" y2="25.3009" gradientUnits="userSpaceOnUse">
<stop stop-color="white"/>
<stop offset="0.01" stop-color="white" stop-opacity="0.98"/>
<stop offset="0.09" stop-color="white" stop-opacity="0.78"/>
<stop offset="0.17" stop-color="white" stop-opacity="0.59"/>
<stop offset="0.26" stop-color="white" stop-opacity="0.43"/>
<stop offset="0.35" stop-color="white" stop-opacity="0.3"/>
<stop offset="0.45" stop-color="white" stop-opacity="0.19"/>
<stop offset="0.55" stop-color="white" stop-opacity="0.11"/>
<stop offset="0.67" stop-color="white" stop-opacity="0.05"/>
<stop offset="0.8" stop-color="white" stop-opacity="0.01"/>
<stop offset="1" stop-color="white" stop-opacity="0"/>
</linearGradient>
<linearGradient id="paint8_linear_582_29" x1="27.808" y1="25.7833" x2="20.3342" y2="52.7316" gradientUnits="userSpaceOnUse">
<stop stop-color="#231F20"/>
<stop offset="0.09" stop-color="#2E2A2B"/>
<stop offset="0.24" stop-color="#4A4849"/>
<stop offset="0.45" stop-color="#77787A"/>
<stop offset="0.48" stop-color="#808284"/>
<stop offset="0.54" stop-color="#76787A"/>
<stop offset="0.71" stop-color="#606163"/>
<stop offset="0.86" stop-color="#535456"/>
<stop offset="1" stop-color="#4E4F51"/>
</linearGradient>
<linearGradient id="paint9_linear_582_29" x1="10.4776" y1="26.5569" x2="22.1012" y2="58.1042" gradientUnits="userSpaceOnUse">
<stop stop-color="#231F20"/>
<stop offset="0.07" stop-color="#2E2A2B"/>
<stop offset="0.19" stop-color="#4A4849"/>
<stop offset="0.36" stop-color="#77787A"/>
<stop offset="0.39" stop-color="#808284"/>
<stop offset="0.42" stop-color="#77797B"/>
<stop offset="0.51" stop-color="#656668"/>
<stop offset="0.61" stop-color="#58595B"/>
<stop offset="0.74" stop-color="#505153"/>
<stop offset="1" stop-color="#4E4F51"/>
</linearGradient>
<clipPath id="clip0_582_29">
<rect width="39.1595" height="50" fill="white"/>
</clipPath>
</defs>
</svg>
