<svg width="19" height="20" viewBox="0 0 19 20" fill="none" xmlns="http://www.w3.org/2000/svg">
<g filter="url(#filter0_d_301_439)">
<path d="M12.5 4C13.3284 4 14 3.32843 14 2.5C14 1.67157 13.3284 1 12.5 1C11.6716 1 11 1.67157 11 2.5C11 3.32843 11.6716 4 12.5 4Z" stroke="white" stroke-linecap="round" stroke-linejoin="round"/>
<path d="M6.5 7.5C7.32843 7.5 8 6.82843 8 6C8 5.17157 7.32843 4.5 6.5 4.5C5.67157 4.5 5 5.17157 5 6C5 6.82843 5.67157 7.5 6.5 7.5Z" stroke="white" stroke-linecap="round" stroke-linejoin="round"/>
<path d="M12.5 11.0002C13.3284 11.0002 14 10.3287 14 9.50024C14 8.67182 13.3284 8.00024 12.5 8.00024C11.6716 8.00024 11 8.67182 11 9.50024C11 10.3287 11.6716 11.0002 12.5 11.0002Z" stroke="white" stroke-linecap="round" stroke-linejoin="round"/>
<path d="M7.79492 6.75513L11.2099 8.74513" stroke="white" stroke-linecap="round" stroke-linejoin="round"/>
<path d="M11.2049 3.25513L7.79492 5.24513" stroke="white" stroke-linecap="round" stroke-linejoin="round"/>
</g>
<defs>
<filter id="filter0_d_301_439" x="0.5" y="0.5" width="18" height="19.0002" filterUnits="userSpaceOnUse" color-interpolation-filters="sRGB">
<feFlood flood-opacity="0" result="BackgroundImageFix"/>
<feColorMatrix in="SourceAlpha" type="matrix" values="0 0 0 0 0 0 0 0 0 0 0 0 0 0 0 0 0 0 127 0" result="hardAlpha"/>
<feOffset dy="4"/>
<feGaussianBlur stdDeviation="2"/>
<feComposite in2="hardAlpha" operator="out"/>
<feColorMatrix type="matrix" values="0 0 0 0 0 0 0 0 0 0 0 0 0 0 0 0 0 0 0.25 0"/>
<feBlend mode="normal" in2="BackgroundImageFix" result="effect1_dropShadow_301_439"/>
<feBlend mode="normal" in="SourceGraphic" in2="effect1_dropShadow_301_439" result="shape"/>
</filter>
</defs>
</svg>
