<svg width="48" height="56" viewBox="0 0 48 56" fill="none" xmlns="http://www.w3.org/2000/svg">
<g clip-path="url(#clip0_582_85)">
<path d="M8.17007 55.1399C8.81007 51.7399 9.58007 47.5399 9.80007 46.5499C9.80007 46.5499 10.5201 51.5499 11.3501 50.1799C12.5001 48.2399 13.6901 46.4199 13.1701 44.0499C12.8996 42.8521 12.4797 41.693 11.9201 40.5999H11.8401C10.0501 40.0699 9.19006 38.1499 8.71006 36.4999C8.64075 35.8796 8.41352 35.2874 8.05007 34.7799C7.866 34.5534 7.63812 34.3664 7.38007 34.2299C7.20314 34.1385 7.03273 34.0349 6.87006 33.9199L6.77007 33.8599C6.50645 33.8414 6.24699 33.7841 6.00007 33.6899C5.64288 33.8988 5.30782 34.1434 5.00007 34.4199C3.39707 35.9805 2.25525 37.9527 1.70006 40.1199C1.14065 42.4847 0.789302 44.8939 0.650061 47.3199C0.198568 49.7027 -0.00916467 52.1251 0.0300662 54.5499V55.1599L8.17007 55.1399Z" fill="#FFC89F"/>
<path d="M5.77005 55.14C4.70005 54.68 3.63005 54.23 2.61005 53.67C1.98628 53.3609 1.41035 52.9635 0.90004 52.49C0.63004 52.17 0.380045 51.86 0.140045 51.49C0.0700452 52.49 0.0500488 53.49 0.0500488 54.49V55.1L5.77005 55.14Z" fill="#FFC89F"/>
<path d="M37.1701 46.5499C37.3901 47.5499 38.1701 51.7399 38.8001 55.1399H46.9701V54.5299C47.0193 52.1048 46.8115 49.6813 46.3501 47.2999C46.229 44.8752 45.8943 42.4659 45.3501 40.0999C44.7826 37.9378 43.6426 35.9686 42.0501 34.3999C41.7417 34.1242 41.4067 33.8797 41.0501 33.6699C40.8067 33.7644 40.5505 33.8217 40.2901 33.8399L40.1901 33.8999C40.026 34.0127 39.8558 34.1162 39.6801 34.2099C39.422 34.3463 39.1942 34.5334 39.0101 34.7599C38.6517 35.271 38.4218 35.8611 38.3401 36.4799C37.8701 38.13 37.0101 40.0499 35.2201 40.5799H35.1501C34.5873 41.6726 34.164 42.8317 33.8901 44.0299C33.3801 46.3999 34.5701 48.2199 35.7201 50.1599C36.4801 51.5599 37.1701 46.5399 37.1701 46.5499Z" fill="#FFC89F"/>
<path d="M46.9901 55.14V54.53C46.9901 53.42 46.9901 52.31 46.8901 51.21C45.4725 51.9628 44.002 52.6112 42.4901 53.15C41.4901 53.51 40.5601 53.86 39.5801 54.15L38.6901 54.41C38.6901 54.66 38.7801 54.9 38.8301 55.14H46.9901Z" fill="#FFC89F"/>
<path d="M29.22 29.56C29.82 28.48 30.41 27.39 30.98 26.28C32.1972 24.2473 33.257 22.1244 34.15 19.93C34.4765 19.0309 34.7339 18.1082 34.92 17.17C34.5606 15.8902 34.1299 14.6316 33.63 13.4H29.77L29.88 12.72L12.74 13.38C12.66 13.69 12.59 14.01 12.52 14.32C12.0247 16.2596 11.9666 18.2851 12.35 20.25C12.6297 21.5167 13.084 22.7384 13.7 23.88C14.25 24.83 14.9 25.7 15.48 26.61C16.36 27.97 17.07 29.37 18.05 30.61H28.51C28.75 30.27 29.04 29.9 29.22 29.56Z" fill="#462B1A"/>
<path d="M28.5101 28.68C28.1665 26.1164 28.2578 23.5132 28.7801 20.98H18.9801C19.4896 23.5149 19.5775 26.1165 19.2401 28.68C15.6801 29.51 13.2401 31.26 13.2401 33.3C13.2401 36.13 18.0201 38.44 23.9101 38.44C29.8001 38.44 34.5501 36.13 34.5501 33.3C34.5301 31.26 32.0801 29.51 28.5101 28.68Z" fill="#D4A47D"/>
<g style="mix-blend-mode:multiply" opacity="0.3">
<path d="M28.5101 28.68C28.1665 26.1164 28.2578 23.5132 28.7801 20.98H18.9801C19.1701 22.15 19.3201 23.15 19.3801 24.08C20.5401 26.42 22.8801 27.02 24.9501 28.44C25.4601 28.82 26.1401 29.44 26.1401 29.97C26.4801 32.08 25.9801 34.38 28.0301 35.34C29.0421 35.6877 30.1193 35.8036 31.1821 35.679C32.2449 35.5543 33.266 35.1924 34.1701 34.62C34.4002 34.2177 34.5241 33.7634 34.5301 33.3C34.5301 31.26 32.0801 29.51 28.5101 28.68Z" fill="#A88F7B"/>
</g>
<path d="M32.17 15.5599C32.17 21.1599 28.48 25.6899 23.93 25.6899C19.38 25.6899 15.66 21.1599 15.66 15.5599C15.66 9.95992 16.14 3.66992 23.93 3.66992C32.17 3.66992 32.17 9.94992 32.17 15.5599Z" fill="#FFC89F"/>
<path d="M23.8901 3.66992C19.8901 3.66992 17.8001 5.34992 16.7301 7.72992C17.7521 7.13112 18.9512 6.90827 20.1201 7.09991C20.4298 6.92873 20.7935 6.88308 21.136 6.97241C21.4784 7.06175 21.7734 7.27924 21.9601 7.57993C22.2684 7.6859 22.5691 7.81285 22.8601 7.95992C25.1455 8.89652 26.9729 10.6915 27.9501 12.9599C28.9501 15.0599 30.7701 22.1499 25.8501 24.6299C20.2701 26.4099 18.2401 22.2199 16.9801 21.1699C17.6065 22.4879 18.5814 23.6095 19.7994 24.4133C21.0173 25.217 22.432 25.6724 23.8901 25.7299C28.4401 25.7299 32.1301 21.1999 32.1301 15.5999C32.1301 9.99993 32.1701 3.66992 23.8901 3.66992Z" fill="#F0B990"/>
<path d="M16.7 15.7299C16.97 16.9299 16.7 18.0199 15.98 18.1799C15.26 18.3399 14.5601 17.4799 14.2801 16.2799C14.0001 15.0799 14.2801 13.9699 15.0001 13.8199C15.7201 13.6699 16.42 14.5199 16.7 15.7299Z" fill="#FFC89F"/>
<path d="M31.06 15.7299C30.78 16.9299 31.06 18.0199 31.77 18.1799C32.48 18.3399 33.19 17.4799 33.47 16.2799C33.75 15.0799 33.47 13.9699 32.76 13.8199C32.05 13.6699 31.33 14.5199 31.06 15.7299Z" fill="#FFC89F"/>
<path d="M9.44003 48.6001C9.57003 49.1801 10.23 50.0601 10.53 50.8801C10.971 52.2695 11.2889 53.6949 11.48 55.14H36.05C36.1565 53.6887 36.4489 52.257 36.92 50.8801C37.1128 50.3767 37.4053 49.9175 37.78 49.5301C37.96 50.4801 37.55 51.86 37.78 52.95C37.94 52.88 47.28 49.0401 47.21 48.7601C47.21 48.6701 46.08 42.3501 45.36 40.1001C44.9959 38.9036 44.503 37.7502 43.89 36.6601L43.78 36.4401C43.1622 35.2901 42.3267 34.2712 41.32 33.4401C40.8797 33.0759 40.4153 32.7418 39.93 32.4401C38.18 30.1501 30.73 29.05 30.73 29.05C30.73 29.05 30.54 35.05 29.1 36.39C27.5151 37.4397 25.6561 37.9995 23.755 37.9995C21.854 37.9995 19.995 37.4397 18.41 36.39C16.97 35.07 16.79 29.05 16.79 29.05C16.79 29.05 10.35 30.0001 8.04002 31.9701C7.23638 32.3661 6.47853 32.849 5.78003 33.4101C4.76801 34.2332 3.93439 35.254 3.33003 36.4101C3.28039 36.4777 3.24002 36.5517 3.21002 36.6301C2.60197 37.7213 2.11252 38.8746 1.75003 40.0701C1.03003 42.3201 0.0800293 47.9601 0.0300293 48.2801C0.440029 48.5701 8.91003 52.64 9.03003 52.7C9.29003 51.3 9.23003 49.7101 9.44003 48.6001Z" fill="white"/>
<path d="M39.5901 44.6801C39.1701 45.2301 38.6601 45.7401 38.2701 46.1801C37.2093 47.2437 36.2516 48.4056 35.4101 49.6501C34.5901 51.0601 34.5201 50.5 33.7101 51.92C33.2701 53.26 25.5001 51.92 21.8601 53.42C22.9562 53.9304 24.0214 54.5047 25.0501 55.14H36.0501C36.1566 53.6887 36.449 52.257 36.9201 50.8801C37.1129 50.3767 37.4054 49.9175 37.7801 49.5301C37.9601 50.4801 37.5501 51.86 37.7801 52.95C37.9401 52.88 47.2801 49.0401 47.2101 48.7601C47.2101 48.6701 46.0801 42.3501 45.3601 40.1001C44.996 38.9036 44.5031 37.7502 43.8901 36.6601L43.7801 36.4401C43.1623 35.2901 42.3268 34.2712 41.3201 33.4401C40.8798 33.0759 40.4154 32.7418 39.9301 32.4401C38.1801 30.1501 30.7301 29.05 30.7301 29.05C30.7301 29.05 30.6801 30.61 30.4401 32.33L30.6701 32.4701C31.6701 33.0101 32.7401 33.47 33.7501 34.11C35.6147 35.2344 37.3256 36.5958 38.8401 38.1601C39.9101 39.1601 41.7101 40.8801 41.2901 42.5901C40.9994 43.4719 40.3942 44.2158 39.5901 44.6801Z" fill="#E4E8ED"/>
<path d="M36.8901 14.6899C36.5101 10.8099 35.5201 7.76992 32.6801 4.88992C32.0501 4.24992 27.9301 1.41991 23.8901 1.67991C18.9401 1.98991 17.8901 4.83991 17.8901 4.83991C17.8901 4.83991 13.4501 4.93992 12.0801 11.6399C11.7385 13.7305 11.5414 15.8422 11.4901 17.9599C11.3864 20.1467 11.5849 22.3374 12.0801 24.4699C12.4584 26.3556 13.1804 28.1555 14.2101 29.7799C14.9901 30.9799 20.0601 30.5299 20.8101 31.7799C16.3701 24.1199 16.2501 15.4299 17.4601 11.5699C17.4601 11.8499 17.5401 12.1099 17.5701 12.3499C17.6601 13.1699 20.3001 8.34991 20.9001 7.56991C20.9801 7.61991 26.4201 12.0999 26.1001 11.4399C25.8801 11.0299 25.3601 9.09992 25.2001 8.66992C26.6579 9.26964 27.9582 10.1969 29.0001 11.3799C31.1701 14.5999 32.1901 22.8599 27.9501 32.2699C27.8601 32.4499 34.5801 29.5499 35.2901 27.5999C36.7719 23.4679 37.3183 19.0586 36.8901 14.6899Z" fill="#7D4E24"/>
<path d="M25.3701 5.55005L24.8601 5.38004C27.069 6.93971 29.0454 8.80499 30.7301 10.92C30.3949 9.89245 29.9872 8.88993 29.5101 7.92004C30.5102 8.54213 31.4304 9.28431 32.2501 10.13C31.2029 7.88975 29.4923 6.02556 27.3501 4.79004C28.1701 5.64004 29.0001 6.49004 29.8201 7.35004L27.5401 5.91005L28.8201 7.56004C27.801 6.68702 26.6321 6.00601 25.3701 5.55005Z" fill="#A86F3D"/>
<path d="M23.4701 24.0099C17.4201 23.3099 12.8601 19.1699 12.8601 14.3999H13.5901C13.5901 18.7999 17.8701 22.6199 23.5901 23.2899L23.4701 24.0099Z" fill="#393B42"/>
<path d="M25.43 23.4701C25.43 23.6965 25.3408 23.9137 25.1817 24.0747C25.0226 24.2357 24.8064 24.3275 24.58 24.3301H22.75C22.5237 24.3275 22.3075 24.2357 22.1484 24.0747C21.9893 23.9137 21.9 23.6965 21.9 23.4701C21.9 23.2447 21.9896 23.0285 22.149 22.8691C22.3084 22.7097 22.5246 22.6201 22.75 22.6201H24.58C24.8055 22.6201 25.0217 22.7097 25.1811 22.8691C25.3405 23.0285 25.43 23.2447 25.43 23.4701Z" fill="#1A222B"/>
<path d="M35.2701 10.28H33.8001C33.8001 5.42 30.4201 1.45999 26.2701 1.45999H21.6001C17.4401 1.45999 14.0601 5.46 14.0601 10.28H12.6001C12.6001 4.61 16.6001 0 21.6001 0H26.2701C31.2301 0 35.2701 4.61 35.2701 10.28Z" fill="#393B42"/>
<path d="M16.1701 18.1399C16.1701 18.7605 15.9236 19.3557 15.4847 19.7946C15.0459 20.2334 14.4507 20.4799 13.8301 20.4799C13.2095 20.4799 12.6143 20.2334 12.1755 19.7946C11.7366 19.3557 11.4901 18.7605 11.4901 18.1399V11.7699C11.4901 11.1493 11.7366 10.5541 12.1755 10.1153C12.6143 9.67648 13.2095 9.42993 13.8301 9.42993C14.4507 9.42993 15.0459 9.67648 15.4847 10.1153C15.9236 10.5541 16.1701 11.1493 16.1701 11.7699V18.1399Z" fill="#1A222B"/>
<path d="M36.4601 18.1399C36.4601 18.7605 36.2135 19.3557 35.7747 19.7946C35.3359 20.2334 34.7407 20.4799 34.1201 20.4799C33.8132 20.48 33.5094 20.4194 33.2261 20.3016C32.9428 20.1839 32.6854 20.0114 32.469 19.794C32.2525 19.5766 32.081 19.3185 31.9645 19.0347C31.848 18.7508 31.7887 18.4467 31.7901 18.1399V11.7699C31.7887 11.4631 31.848 11.1591 31.9645 10.8752C32.081 10.5914 32.2525 10.3333 32.469 10.1159C32.6854 9.89848 32.9428 9.72596 33.2261 9.60825C33.5094 9.49053 33.8132 9.42993 34.1201 9.42993C34.7407 9.42993 35.3359 9.67648 35.7747 10.1153C36.2135 10.5541 36.4601 11.1493 36.4601 11.7699V18.1399Z" fill="#1A222B"/>
</g>
<defs>
<clipPath id="clip0_582_85">
<rect width="47.18" height="55.15" fill="white"/>
</clipPath>
</defs>
</svg>
