<svg width="46" height="46" viewBox="0 0 46 46" fill="none" xmlns="http://www.w3.org/2000/svg">
<g clip-path="url(#clip0_558_125)">
<path d="M23.0026 45.9998C35.7066 45.9998 46.0052 35.7012 46.0052 22.9972C46.0052 10.2932 35.7066 -0.00537109 23.0026 -0.00537109C10.2986 -0.00537109 0 10.2932 0 22.9972C0 35.7012 10.2986 45.9998 23.0026 45.9998Z" fill="url(#paint0_linear_558_125)"/>
<path d="M23.1743 8.00366C21.2237 8.00639 19.2927 8.39327 17.4917 9.14225C15.6906 9.89123 14.0545 10.9876 12.6772 12.3688C11.2998 13.75 10.2082 15.389 9.46423 17.1921C8.7203 18.9953 8.33884 20.9273 8.34157 22.8779C9.12114 42.6271 37.2274 42.5959 38.007 22.8779C38.0097 20.9273 37.628 18.9953 36.884 17.1921C36.1401 15.389 35.0484 13.75 33.6711 12.3688C32.2937 10.9876 30.6579 9.89123 28.8569 9.14225C27.0558 8.39327 25.1248 8.00639 23.1743 8.00366ZM32.0094 27.0668C32.0094 27.8516 31.3649 28.1062 30.7568 27.6853C29.6238 26.8901 28.4961 26.0846 27.3683 25.2842C27.3683 25.6584 27.3683 26.5263 27.3683 26.9057C27.3869 27.0489 27.372 27.1945 27.3246 27.331C27.2773 27.4674 27.1988 27.5909 27.0955 27.6917C26.9921 27.7926 26.8666 27.868 26.729 27.912C26.5915 27.956 26.4457 27.9673 26.303 27.9451H17.0986C15.1444 27.9451 13.8245 26.6614 13.8245 24.7541V18.7878C13.8245 18.0705 14.1674 17.7483 14.8898 17.7483C17.374 17.7951 21.7137 17.7483 24.1459 17.7483C24.9159 17.7031 25.6742 17.9531 26.2662 18.4476C26.8581 18.942 27.2394 19.6436 27.332 20.4093C28.4754 19.6037 29.6135 18.7929 30.7568 17.9926C31.2765 17.608 31.9782 17.7275 32.0094 18.6059C32.0146 21.324 32.025 24.3227 32.0094 27.0668Z" fill="white"/>
</g>
<defs>
<linearGradient id="paint0_linear_558_125" x1="0" y1="22.9972" x2="46" y2="22.9972" gradientUnits="userSpaceOnUse">
<stop stop-color="#2D5E9E"/>
<stop offset="1" stop-color="#73A3E4"/>
</linearGradient>
<clipPath id="clip0_558_125">
<rect width="46" height="46" fill="white"/>
</clipPath>
</defs>
</svg>
